<?xml version="1.0" standalone="no"?><!DOCTYPE svg PUBLIC "-//W3C//DTD SVG 1.1//EN" "http://www.w3.org/Graphics/SVG/1.1/DTD/svg11.dtd"><svg t="1607130195482" class="icon" viewBox="0 0 1024 1024" version="1.1" xmlns="http://www.w3.org/2000/svg" p-id="1436" xmlns:xlink="http://www.w3.org/1999/xlink" width="200" height="200"><defs><style type="text/css"></style></defs><path d="M454.41901 908.836834a454.418417 454.418417 0 1 1 454.418417-454.418417 454.418417 454.418417 0 0 1-454.418417 454.418417zM454.41901 78.589486a376.607044 376.607044 0 1 0 376.607045 375.828931A376.607044 376.607044 0 0 0 454.41901 78.589486z" p-id="1437"></path><path d="M985.092573 1023.997666a36.571345 36.571345 0 0 1-27.233981-11.671706l-233.434118-233.434119a38.127573 38.127573 0 0 1 54.467961-54.467961l233.434118 233.434119a38.905686 38.905686 0 0 1-27.23398 66.139667z" p-id="1438"></path></svg>